<?xml version="1.0" standalone="no"?>
<!DOCTYPE svg PUBLIC "-//W3C//DTD SVG 20010904//EN"
 "http://www.w3.org/TR/2001/REC-SVG-20010904/DTD/svg10.dtd">
<svg version="1.0" xmlns="http://www.w3.org/2000/svg"
 width="128.000000pt" height="128.000000pt" viewBox="0 0 128.000000 128.000000"
 preserveAspectRatio="xMidYMid meet">

<g transform="translate(0.000000,128.000000) scale(0.100000,-0.100000)"
fill="#000000" stroke="none">
<path d="M500 1264 c-234 -50 -436 -254 -485 -489 -95 -454 306 -855 760 -760
303 63 520 349 502 660 -10 166 -70 297 -192 420 -151 151 -372 215 -585 169z
m275 -66 c75 -15 185 -73 248 -129 122 -108 189 -262 189 -429 0 -195 -85
-358 -244 -470 -286 -201 -690 -98 -842 214 -43 89 -59 158 -59 256 0 156 56
292 163 401 148 149 331 202 545 157z"/>
<path d="M527 889 c-9 -6 -17 -16 -17 -24 0 -7 54 -60 119 -117 66 -57 120
-105 120 -108 0 -3 -54 -51 -120 -108 -65 -57 -119 -110 -119 -117 0 -8 9 -19
20 -25 17 -9 38 6 160 111 84 73 140 128 140 139 0 11 -52 64 -130 131 -150
131 -150 131 -173 118z"/>
</g>
</svg>
