<svg width="20" height="20" viewBox="0 0 20 20" fill="none" xmlns="http://www.w3.org/2000/svg">
<path d="M16.7047 13.7277C15.7016 12.5 14.9934 11.875 14.9934 8.49023C14.9934 5.39063 13.4106 4.28633 12.1079 3.75C11.9348 3.67891 11.7719 3.51562 11.7192 3.33789C11.4907 2.56016 10.85 1.875 9.99848 1.875C9.14692 1.875 8.50591 2.56055 8.27973 3.33867C8.227 3.51836 8.06411 3.67891 7.89106 3.75C6.58677 4.28711 5.00552 5.3875 5.00552 8.49023C5.00356 11.875 4.29536 12.5 3.29223 13.7277C2.87661 14.2363 3.24067 15 3.96762 15H16.0332C16.7563 15 17.118 14.234 16.7047 13.7277Z" stroke="#000" stroke-width="1.25" stroke-linecap="round" stroke-linejoin="round"/>
<path d="M12.5 15V15.625C12.5 16.288 12.2366 16.9239 11.7678 17.3928C11.2989 17.8616 10.663 18.125 10 18.125C9.33696 18.125 8.70107 17.8616 8.23223 17.3928C7.76339 16.9239 7.5 16.288 7.5 15.625V15" stroke="#000" stroke-width="1.25" stroke-linecap="round" stroke-linejoin="round"/>
</svg>
