<svg width="16" height="16" viewBox="0 0 16 16" fill="none" xmlns="http://www.w3.org/2000/svg">
<path d="M5.42188 3.95239C5.16563 3.95239 4.95312 3.73989 4.95312 3.48364V1.60864C4.95312 1.35239 5.16563 1.13989 5.42188 1.13989C5.67813 1.13989 5.89062 1.35239 5.89062 1.60864V3.48364C5.89062 3.73989 5.67813 3.95239 5.42188 3.95239Z" fill="#000"/>
<path d="M10.4219 3.95239C10.1656 3.95239 9.95312 3.73989 9.95312 3.48364V1.60864C9.95312 1.35239 10.1656 1.13989 10.4219 1.13989C10.6781 1.13989 10.8906 1.35239 10.8906 1.60864V3.48364C10.8906 3.73989 10.6781 3.95239 10.4219 3.95239Z" fill="#000"/>
<path d="M5.73438 9.42109C5.65312 9.42109 5.57187 9.40235 5.49687 9.3711C5.41562 9.33985 5.35313 9.29609 5.29063 9.23984C5.17813 9.12109 5.10938 8.96484 5.10938 8.79609C5.10938 8.71484 5.12813 8.63359 5.15938 8.55859C5.19063 8.48359 5.23438 8.41485 5.29063 8.35235C5.35313 8.2961 5.41562 8.25233 5.49687 8.22108C5.72187 8.12733 6.00312 8.17735 6.17812 8.35235C6.29062 8.4711 6.35938 8.63359 6.35938 8.79609C6.35938 8.83359 6.35312 8.87735 6.34687 8.9211C6.34062 8.9586 6.32812 8.9961 6.30937 9.0336C6.29687 9.0711 6.27813 9.10859 6.25313 9.14609C6.23438 9.17734 6.20312 9.20859 6.17812 9.23984C6.05937 9.35234 5.89688 9.42109 5.73438 9.42109Z" fill="#000"/>
<path d="M7.92188 9.42119C7.84062 9.42119 7.75937 9.40244 7.68437 9.37119C7.60312 9.33994 7.54063 9.29618 7.47813 9.23993C7.36563 9.12118 7.29688 8.96494 7.29688 8.79619C7.29688 8.71494 7.31563 8.63368 7.34688 8.55868C7.37813 8.48368 7.42188 8.41494 7.47813 8.35244C7.54063 8.29619 7.60312 8.25243 7.68437 8.22118C7.90937 8.12118 8.19062 8.17744 8.36562 8.35244C8.47812 8.47119 8.54688 8.63369 8.54688 8.79619C8.54688 8.83369 8.54062 8.87744 8.53437 8.92119C8.52812 8.95869 8.51562 8.99619 8.49687 9.03369C8.48437 9.07119 8.46563 9.10868 8.44063 9.14618C8.42188 9.17743 8.39062 9.20868 8.36562 9.23993C8.24687 9.35243 8.08438 9.42119 7.92188 9.42119Z" fill="#000"/>
<path d="M10.1094 9.42119C10.0281 9.42119 9.94687 9.40244 9.87187 9.37119C9.79062 9.33994 9.72813 9.29618 9.66563 9.23993C9.64063 9.20868 9.61562 9.17743 9.59062 9.14618C9.56562 9.10868 9.54688 9.07119 9.53438 9.03369C9.51563 8.99619 9.50313 8.95869 9.49688 8.92119C9.49063 8.87744 9.48438 8.83369 9.48438 8.79619C9.48438 8.63369 9.55313 8.47119 9.66563 8.35244C9.72813 8.29619 9.79062 8.25243 9.87187 8.22118C10.1031 8.12118 10.3781 8.17744 10.5531 8.35244C10.6656 8.47119 10.7344 8.63369 10.7344 8.79619C10.7344 8.83369 10.7281 8.87744 10.7219 8.92119C10.7156 8.95869 10.7031 8.99619 10.6844 9.03369C10.6719 9.07119 10.6531 9.10868 10.6281 9.14618C10.6094 9.17743 10.5781 9.20868 10.5531 9.23993C10.4344 9.35243 10.2719 9.42119 10.1094 9.42119Z" fill="#000"/>
<path d="M5.73438 11.6086C5.65312 11.6086 5.57187 11.5899 5.49687 11.5586C5.42187 11.5274 5.35313 11.4836 5.29063 11.4274C5.17813 11.3086 5.10938 11.1461 5.10938 10.9836C5.10938 10.9024 5.12813 10.8211 5.15938 10.7461C5.19063 10.6649 5.23438 10.5961 5.29063 10.5399C5.52188 10.3086 5.94687 10.3086 6.17812 10.5399C6.29062 10.6586 6.35938 10.8211 6.35938 10.9836C6.35938 11.1461 6.29062 11.3086 6.17812 11.4274C6.05937 11.5399 5.89688 11.6086 5.73438 11.6086Z" fill="#000"/>
<path d="M7.92188 11.6086C7.75938 11.6086 7.59688 11.5399 7.47813 11.4274C7.36563 11.3086 7.29688 11.1461 7.29688 10.9836C7.29688 10.9024 7.31563 10.8211 7.34688 10.7461C7.37813 10.6649 7.42188 10.5961 7.47813 10.5399C7.70938 10.3086 8.13437 10.3086 8.36562 10.5399C8.42187 10.5961 8.46562 10.6649 8.49687 10.7461C8.52812 10.8211 8.54688 10.9024 8.54688 10.9836C8.54688 11.1461 8.47812 11.3086 8.36562 11.4274C8.24687 11.5399 8.08438 11.6086 7.92188 11.6086Z" fill="#000"/>
<path d="M10.1094 11.6087C9.94688 11.6087 9.78438 11.54 9.66563 11.4275C9.60938 11.3712 9.56563 11.3025 9.53438 11.2212C9.50313 11.1462 9.48438 11.065 9.48438 10.9837C9.48438 10.9025 9.50313 10.8212 9.53438 10.7462C9.56563 10.665 9.60938 10.5962 9.66563 10.54C9.80938 10.3962 10.0281 10.3275 10.2281 10.3712C10.2719 10.3775 10.3094 10.39 10.3469 10.4087C10.3844 10.4212 10.4219 10.44 10.4594 10.465C10.4906 10.4837 10.5219 10.515 10.5531 10.54C10.6656 10.6587 10.7344 10.8212 10.7344 10.9837C10.7344 11.1462 10.6656 11.3087 10.5531 11.4275C10.4344 11.54 10.2719 11.6087 10.1094 11.6087Z" fill="#000"/>
<path d="M13.2344 6.50854H2.60938C2.35313 6.50854 2.14062 6.29604 2.14062 6.03979C2.14062 5.78354 2.35313 5.57104 2.60938 5.57104H13.2344C13.4906 5.57104 13.7031 5.78354 13.7031 6.03979C13.7031 6.29604 13.4906 6.50854 13.2344 6.50854Z" fill="#000"/>
<path d="M10.4219 14.5774H5.42188C3.14062 14.5774 1.82812 13.2649 1.82812 10.9836V5.67114C1.82812 3.38989 3.14062 2.07739 5.42188 2.07739H10.4219C12.7031 2.07739 14.0156 3.38989 14.0156 5.67114V10.9836C14.0156 13.2649 12.7031 14.5774 10.4219 14.5774ZM5.42188 3.01489C3.63438 3.01489 2.76562 3.88364 2.76562 5.67114V10.9836C2.76562 12.7711 3.63438 13.6399 5.42188 13.6399H10.4219C12.2094 13.6399 13.0781 12.7711 13.0781 10.9836V5.67114C13.0781 3.88364 12.2094 3.01489 10.4219 3.01489H5.42188Z" fill="#000"/>
</svg>
