<svg width="13" height="15" viewBox="0 0 13 15" fill="none" xmlns="http://www.w3.org/2000/svg">
<g clip-path="url(#clip0_11326_21829)">
<path d="M6.5 0.9375C2.90977 0.9375 0 3.66504 0 7.03125C0 8.48438 0.543359 9.81445 1.44727 10.8604C1.12988 12.3369 0.0685547 13.6523 0.0558594 13.667C0 13.7344 -0.0152344 13.834 0.0177734 13.9219C0.0507812 14.0098 0.121875 14.0625 0.203125 14.0625C1.88652 14.0625 3.14844 13.1309 3.77305 12.5566C4.60332 12.917 5.525 13.125 6.5 13.125C10.0902 13.125 13 10.3975 13 7.03125C13 3.66504 10.0902 0.9375 6.5 0.9375Z" fill="#000"/>
</g>
<defs>
<clipPath id="clip0_11326_21829">
<rect width="13" height="15" fill="white"/>
</clipPath>
</defs>
</svg>
