<svg width="13" height="15" viewBox="0 0 13 15" fill="none" xmlns="http://www.w3.org/2000/svg">
<path d="M1.9361 10.9654L1.98845 10.7219L1.82556 10.5334C0.994542 9.57185 0.5 8.356 0.5 7.03125C0.5 3.97111 3.155 1.4375 6.5 1.4375C9.845 1.4375 12.5 3.97111 12.5 7.03125C12.5 10.0914 9.845 12.625 6.5 12.625C5.59679 12.625 4.74267 12.4324 3.97211 12.098L3.67394 11.9686L3.43465 12.1886C2.92389 12.6581 1.99471 13.3471 0.779253 13.5213C0.866874 13.3915 0.965179 13.2387 1.06699 13.0676C1.38724 12.5294 1.76137 11.7783 1.9361 10.9654ZM0.440743 13.9861C0.442363 13.9841 0.44419 13.9818 0.446219 13.9793C0.444459 13.9816 0.442649 13.9839 0.440792 13.9861L0.440743 13.9861Z" stroke="#000"/>
</svg>
