<svg width="13" height="13" viewBox="0 0 13 13" fill="none" xmlns="http://www.w3.org/2000/svg">
<path d="M8.81743 4.18115C8.75932 4.12257 8.6902 4.07607 8.61404 4.04434C8.53787 4.01261 8.45618 3.99627 8.37368 3.99627C8.29117 3.99627 8.20948 4.01261 8.13332 4.04434C8.05715 4.07607 7.98803 4.12257 7.92993 4.18115L6.49868 5.61865L5.06743 4.18115C4.94974 4.06346 4.79011 3.99734 4.62368 3.99734C4.45724 3.99734 4.29762 4.06346 4.17993 4.18115C4.06224 4.29884 3.99612 4.45846 3.99612 4.6249C3.99612 4.79134 4.06224 4.95096 4.17993 5.06865L5.61743 6.4999L4.17993 7.93115C4.12135 7.98925 4.07485 8.05837 4.04312 8.13454C4.01139 8.2107 3.99505 8.29239 3.99505 8.3749C3.99505 8.4574 4.01139 8.53909 4.04312 8.61526C4.07485 8.69142 4.12135 8.76054 4.17993 8.81865C4.23803 8.87723 4.30715 8.92372 4.38332 8.95545C4.45948 8.98718 4.54117 9.00352 4.62368 9.00352C4.70618 9.00352 4.78787 8.98718 4.86404 8.95545C4.9402 8.92372 5.00932 8.87723 5.06743 8.81865L6.49868 7.38115L7.92993 8.81865C7.98803 8.87723 8.05715 8.92372 8.13332 8.95545C8.20948 8.98718 8.29117 9.00352 8.37368 9.00352C8.45618 9.00352 8.53787 8.98718 8.61404 8.95545C8.6902 8.92372 8.75932 8.87723 8.81743 8.81865C8.87601 8.76054 8.9225 8.69142 8.95423 8.61526C8.98596 8.53909 9.0023 8.4574 9.0023 8.3749C9.0023 8.29239 8.98596 8.2107 8.95423 8.13454C8.9225 8.05837 8.87601 7.98925 8.81743 7.93115L7.37993 6.4999L8.81743 5.06865C8.87601 5.01055 8.9225 4.94142 8.95423 4.86526C8.98596 4.7891 9.0023 4.7074 9.0023 4.6249C9.0023 4.54239 8.98596 4.4607 8.95423 4.38454C8.9225 4.30837 8.87601 4.23925 8.81743 4.18115ZM10.9174 2.08115C10.3409 1.48421 9.65123 1.00807 8.8887 0.680513C8.12618 0.352957 7.30605 0.180543 6.47618 0.173332C5.64631 0.16612 4.82332 0.324256 4.05521 0.638512C3.28711 0.952767 2.58929 1.41685 2.00246 2.00368C1.41563 2.59051 0.951546 3.28833 0.637291 4.05643C0.323035 4.82454 0.1649 5.64753 0.172111 6.4774C0.179322 7.30728 0.351736 8.1274 0.679293 8.88993C1.00685 9.65245 1.48299 10.3421 2.07993 10.9186C2.65647 11.5156 3.34612 11.9917 4.10865 12.3193C4.87117 12.6468 5.6913 12.8193 6.52117 12.8265C7.35104 12.8337 8.17404 12.6755 8.94214 12.3613C9.71024 12.047 10.4081 11.5829 10.9949 10.9961C11.5817 10.4093 12.0458 9.71146 12.3601 8.94336C12.6743 8.17526 12.8325 7.35226 12.8252 6.52239C12.818 5.69252 12.6456 4.87239 12.3181 4.10987C11.9905 3.34734 11.5144 2.65769 10.9174 2.08115ZM10.0362 10.0374C9.2187 10.8558 8.14276 11.3654 6.99167 11.4795C5.84058 11.5935 4.68555 11.3049 3.72338 10.6629C2.7612 10.0208 2.0514 9.06503 1.71491 7.95832C1.37842 6.85162 1.43605 5.66249 1.878 4.59351C2.31994 3.52454 3.11885 2.64186 4.13861 2.09587C5.15837 1.54988 6.33589 1.37435 7.47056 1.59919C8.60522 1.82403 9.62683 2.43533 10.3613 3.32894C11.0958 4.22254 11.4978 5.34317 11.4987 6.4999C11.5009 7.15695 11.3728 7.80792 11.1218 8.41514C10.8707 9.02235 10.5017 9.57374 10.0362 10.0374Z" fill="#000"/>
</svg>
