<svg width="14" height="16" viewBox="0 0 14 16" fill="none" xmlns="http://www.w3.org/2000/svg">
<path d="M6.9828 0.8125C7.65572 0.812475 8.30243 1.07384 8.78694 1.54163C9.27146 2.00943 9.55601 2.6472 9.58078 3.32083L9.58244 3.41708L12.39 3.41667C12.5779 3.41675 12.7584 3.48955 12.8938 3.61984C13.0293 3.75013 13.1093 3.92783 13.117 4.11581C13.1247 4.30378 13.0596 4.48747 12.9353 4.62849C12.811 4.76951 12.6371 4.85693 12.4499 4.8725L12.39 4.875H11.9046L11.2279 13.8625C11.1943 14.3078 10.9941 14.724 10.6672 15.0276C10.3403 15.3313 9.91094 15.5 9.46514 15.5H4.50046C4.05466 15.5 3.62531 15.3313 3.29843 15.0276C2.97155 14.724 2.77126 14.3078 2.7377 13.8625L2.06054 4.875H1.57555C1.39281 4.87498 1.21676 4.80611 1.08237 4.68206C0.947979 4.55801 0.865084 4.38787 0.850152 4.20542L0.847656 4.14583C0.847672 3.96277 0.916424 3.78641 1.04026 3.65179C1.16409 3.51716 1.33394 3.43413 1.51608 3.41917L1.57555 3.41667H4.38316C4.38316 2.0425 5.4459 0.916667 6.79313 0.819167L6.88755 0.814167L6.9828 0.8125ZM8.54258 6.22917C8.41387 6.22911 8.2897 6.27688 8.19412 6.36324C8.09854 6.4496 8.03833 6.5684 8.02515 6.69667L8.02266 6.75V11.75L8.02515 11.8033C8.03778 11.932 8.09775 12.0514 8.19339 12.1382C8.28903 12.2251 8.4135 12.2732 8.54258 12.2732C8.67167 12.2732 8.79614 12.2251 8.89178 12.1382C8.98742 12.0514 9.04738 11.932 9.06002 11.8033L9.06251 11.75V6.75L9.06002 6.69667C9.04683 6.5684 8.98663 6.4496 8.89105 6.36324C8.79546 6.27688 8.6713 6.22911 8.54258 6.22917ZM5.42302 6.22917C5.2943 6.22911 5.17014 6.27688 5.07456 6.36324C4.97897 6.4496 4.91877 6.5684 4.90559 6.69667L4.90309 6.75V11.75L4.90559 11.8033C4.91822 11.932 4.97819 12.0514 5.07383 12.1382C5.16946 12.2251 5.29393 12.2732 5.42302 12.2732C5.5521 12.2732 5.67657 12.2251 5.77221 12.1382C5.86785 12.0514 5.92782 11.932 5.94045 11.8033L5.94295 11.75V6.75L5.94045 6.69667C5.92727 6.5684 5.86706 6.4496 5.77148 6.36324C5.6759 6.27688 5.55173 6.22911 5.42302 6.22917ZM7.05268 2.27292L6.9828 2.27083C6.69152 2.27082 6.41121 2.38212 6.19904 2.58204C5.98687 2.78196 5.85883 3.05543 5.84104 3.34667L5.83896 3.41708L8.12664 3.41667C8.12666 3.12488 8.01555 2.84408 7.81598 2.63154C7.61641 2.41901 7.34341 2.29074 7.05268 2.27292Z" fill="#000"/>
</svg>
