<svg width="15" height="15" viewBox="0 0 15 15" fill="none" xmlns="http://www.w3.org/2000/svg">
<g clip-path="url(#clip0_2843_39990)">
<path d="M0.773438 2.35072C0.953906 2.26722 1.15225 2.22445 1.35088 2.2265C5.41436 2.22591 9.47754 2.2265 13.5407 2.2262C13.778 2.21683 14.0197 2.24759 14.2359 2.34984C12.1189 4.47591 9.9999 6.60023 7.88262 8.72572C7.69541 8.93988 7.31543 8.94163 7.12852 8.7263C5.01035 6.60111 2.89248 4.47533 0.773438 2.35072Z" fill="#000"/>
<path d="M0 3.45645C0.0175781 3.28564 0.065918 3.11924 0.140039 2.96484C1.64766 4.47568 3.15439 5.98711 4.65996 7.49971C3.15322 9.01084 1.64766 10.5231 0.140039 12.0334C0.0670898 11.8813 0.0199219 11.7179 0 11.5503V3.45645Z" fill="#000"/>
<path d="M10.3438 7.49971C11.849 5.98711 13.3563 4.47627 14.8628 2.96484C14.9357 3.11719 14.9826 3.28096 15.0028 3.44883V11.5184C14.9899 11.6971 14.9396 11.8717 14.8628 12.0334C13.3561 10.5226 11.8502 9.01084 10.3438 7.49971Z" fill="#000"/>
<path d="M0.773438 12.6472C2.27783 11.139 3.78105 9.62959 5.28545 8.12109C5.71348 8.54736 6.13682 8.97861 6.56631 9.40342C7.07695 9.9 7.97813 9.88447 8.47441 9.37471C8.89131 8.95723 9.30762 8.53916 9.72422 8.12109C11.2286 9.62988 12.7339 11.1381 14.2362 12.6489C14.0546 12.7292 13.8568 12.7737 13.6576 12.7714C9.61494 12.772 5.57197 12.7717 1.529 12.7717C1.27207 12.7813 1.00811 12.7611 0.773438 12.6472Z" fill="#000"/>
</g>
<defs>
<clipPath id="clip0_2843_39990">
<rect width="15" height="15" fill="white"/>
</clipPath>
</defs>
</svg>
