<?xml version="1.0" standalone="no"?>
<!DOCTYPE svg PUBLIC "-//W3C//DTD SVG 20010904//EN"
 "http://www.w3.org/TR/2001/REC-SVG-20010904/DTD/svg10.dtd">
<svg version="1.0" xmlns="http://www.w3.org/2000/svg"
 width="128.000000pt" height="128.000000pt" viewBox="0 0 128.000000 128.000000"
 preserveAspectRatio="xMidYMid meet">

<g transform="translate(0.000000,128.000000) scale(0.100000,-0.100000)"
fill="#000000" stroke="none">
<path d="M501 1265 c-110 -24 -226 -89 -311 -175 -250 -250 -252 -649 -5 -895
81 -80 152 -125 257 -163 63 -22 89 -26 193 -27 97 0 133 4 190 22 199 63 365
229 428 428 31 99 31 271 0 370 -101 318 -428 510 -752 440z m288 -82 c90 -24
172 -72 243 -140 225 -218 230 -567 11 -795 -109 -112 -248 -171 -403 -171
-155 0 -294 59 -403 171 -107 111 -159 240 -159 392 0 157 58 294 170 403 149
143 346 194 541 140z"/>
<path d="M736 881 l-219 -118 -119 -220 c-165 -307 -162 -310 145 -145 l221
118 118 220 c64 120 118 222 118 226 0 9 -29 38 -38 38 -4 0 -106 -54 -226
-119z m124 -25 c0 -7 -121 -230 -129 -238 -4 -4 -33 19 -65 51 l-58 59 88 47
c49 26 103 56 119 66 30 18 45 23 45 15z m-246 -245 l58 -59 -122 -67 c-67
-36 -124 -64 -127 -61 -3 3 4 20 14 38 11 18 41 72 67 121 26 48 48 87 49 87
2 0 29 -26 61 -59z"/>
</g>
</svg>
