<svg width="13" height="13" viewBox="0 0 13 13" fill="none" xmlns="http://www.w3.org/2000/svg">
<path d="M12.5205 3.15429C12.3242 2.69966 12.041 2.28767 11.687 1.9414C11.3327 1.5941 10.915 1.3181 10.4565 1.12841C9.98117 0.930942 9.4713 0.829865 8.95654 0.83105C8.23438 0.83105 7.52979 1.0288 6.91748 1.40234C6.771 1.49169 6.63184 1.58984 6.5 1.69677C6.36816 1.58984 6.229 1.49169 6.08252 1.40234C5.47021 1.0288 4.76562 0.83105 4.04346 0.83105C3.52344 0.83105 3.01953 0.930659 2.54346 1.12841C2.0835 1.31884 1.66895 1.59277 1.31299 1.9414C0.958491 2.28728 0.675309 2.69937 0.479492 3.15429C0.275879 3.62744 0.171875 4.12988 0.171875 4.64697C0.171875 5.13476 0.271484 5.64306 0.469238 6.16015C0.634766 6.59228 0.87207 7.04052 1.17529 7.49316C1.65576 8.20947 2.31641 8.95654 3.13672 9.71386C4.49609 10.9692 5.84229 11.8364 5.89941 11.8716L6.24658 12.0942C6.40039 12.1924 6.59814 12.1924 6.75195 12.0942L7.09912 11.8716C7.15625 11.835 8.50098 10.9692 9.86182 9.71386C10.6821 8.95654 11.3428 8.20947 11.8232 7.49316C12.1265 7.04052 12.3652 6.59228 12.5293 6.16015C12.7271 5.64306 12.8267 5.13476 12.8267 4.64697C12.8281 4.12988 12.7241 3.62744 12.5205 3.15429Z" fill="#D9534F"/>
</svg>
