<?xml version="1.0" standalone="no"?>
<!DOCTYPE svg PUBLIC "-//W3C//DTD SVG 20010904//EN"
 "http://www.w3.org/TR/2001/REC-SVG-20010904/DTD/svg10.dtd">
<svg version="1.0" xmlns="http://www.w3.org/2000/svg"
 width="128.000000pt" height="128.000000pt" viewBox="0 0 128.000000 128.000000"
 preserveAspectRatio="xMidYMid meet">

<g transform="translate(0.000000,128.000000) scale(0.100000,-0.100000)"
fill="#000000" stroke="none">
<path d="M501 1265 c-35 -8 -103 -33 -150 -57 -210 -103 -351 -332 -351 -568
0 -236 141 -465 351 -568 135 -67 173 -72 577 -72 l352 0 0 55 0 55 -141 0
-141 0 49 38 c139 110 233 309 233 492 -1 405 -382 711 -779 625z m219 -117
c75 -52 99 -131 61 -205 -58 -116 -224 -116 -282 0 -53 103 24 227 141 227 32
0 57 -7 80 -22z m-352 -258 c47 -29 72 -76 72 -135 0 -93 -62 -155 -155 -155
-93 0 -155 62 -155 155 0 93 62 155 155 155 32 0 62 -7 83 -20z m710 0 c47
-29 72 -76 72 -135 0 -93 -62 -155 -155 -155 -93 0 -155 62 -155 155 0 93 62
155 155 155 32 0 62 -7 83 -20z m-400 -212 c7 -7 12 -24 12 -38 0 -33 -17 -50
-50 -50 -14 0 -31 5 -38 12 -7 7 -12 24 -12 38 0 14 5 31 12 38 15 15 61 15
76 0z m-192 -197 c61 -28 89 -73 89 -143 0 -64 -18 -97 -76 -136 -28 -20 -43
-23 -87 -20 -83 7 -141 61 -149 139 -6 64 28 127 87 157 54 27 82 27 136 3z
m444 -3 c59 -30 93 -93 87 -157 -8 -78 -66 -132 -149 -139 -44 -3 -59 0 -87
20 -58 39 -76 72 -76 136 0 70 28 115 89 143 54 24 82 24 136 -3z"/>
</g>
</svg>
