<?xml version="1.0" standalone="no"?>
<!DOCTYPE svg PUBLIC "-//W3C//DTD SVG 20010904//EN"
 "http://www.w3.org/TR/2001/REC-SVG-20010904/DTD/svg10.dtd">
<svg version="1.0" xmlns="http://www.w3.org/2000/svg"
 width="128.000000pt" height="128.000000pt" viewBox="0 0 128.000000 128.000000"
 preserveAspectRatio="xMidYMid meet">

<g transform="translate(0.000000,128.000000) scale(0.100000,-0.100000)"
fill="#000000" stroke="none">
<path d="M500 1265 c-109 -24 -224 -88 -310 -175 -253 -252 -253 -648 0 -900
252 -253 648 -253 900 0 253 252 253 648 0 900 -156 157 -373 221 -590 175z
m280 -80 c196 -52 353 -209 405 -405 19 -70 19 -210 0 -280 -52 -196 -209
-353 -405 -405 -70 -19 -210 -19 -280 0 -196 52 -353 209 -405 405 -19 70 -19
210 0 280 51 194 208 352 401 405 66 18 216 18 284 0z"/>
<path d="M355 851 c-76 -19 -108 -58 -75 -91 l21 -21 33 20 c41 26 57 26 104
2 42 -21 72 -14 72 19 0 22 -54 70 -80 70 -10 0 -24 2 -32 4 -7 2 -26 1 -43
-3z"/>
<path d="M852 850 c-39 -9 -82 -46 -82 -71 0 -32 30 -39 72 -18 47 24 63 24
104 -2 l33 -20 21 21 c16 16 18 25 10 40 -21 39 -98 63 -158 50z"/>
<path d="M271 593 c-13 -25 3 -114 33 -178 34 -76 97 -139 175 -178 60 -29 74
-32 161 -32 87 0 101 3 161 32 112 55 189 161 208 285 15 94 41 88 -369 88
-332 0 -360 -1 -369 -17z m659 -77 c0 -40 -29 -96 -76 -146 -117 -125 -311
-125 -428 0 -47 50 -76 106 -76 146 l0 24 290 0 290 0 0 -24z"/>
</g>
</svg>
