<?xml version="1.0" standalone="no"?>
<!DOCTYPE svg PUBLIC "-//W3C//DTD SVG 20010904//EN"
 "http://www.w3.org/TR/2001/REC-SVG-20010904/DTD/svg10.dtd">
<svg version="1.0" xmlns="http://www.w3.org/2000/svg"
 width="128.000000pt" height="128.000000pt" viewBox="0 0 128.000000 128.000000"
 preserveAspectRatio="xMidYMid meet">

<g transform="translate(0.000000,128.000000) scale(0.100000,-0.100000)"
 stroke="#000" stroke-width="1.5">
<path d="M586 1225 c-44 -11 -71 -35 -312 -276 -146 -145 -267 -274 -271 -287
-14 -55 44 -104 97 -82 14 6 138 123 275 260 138 138 257 250 265 250 8 0 125
-111 260 -246 135 -135 257 -252 272 -260 34 -18 73 -9 93 19 31 44 20 65 -95
182 l-110 111 0 126 c0 125 0 127 -26 147 -15 12 -34 21 -44 21 -10 0 -29 -9
-44 -21 -23 -18 -26 -28 -26 -77 l0 -56 -92 91 c-69 67 -102 92 -128 97 -19 4
-42 9 -50 11 -8 2 -37 -2 -64 -10z"/>
<path d="M402 727 l-222 -222 0 -184 c0 -202 5 -221 64 -257 25 -15 56 -20
154 -22 l122 -4 0 166 0 166 120 0 120 0 0 -166 0 -166 123 4 c97 2 128 7 153
22 59 36 64 55 64 258 l0 183 -223 223 c-122 122 -229 222 -237 222 -8 0 -115
-100 -238 -223z"/>
</g>
</svg>
