<svg width="15" height="15" viewBox="0 0 15 15" fill="none" xmlns="http://www.w3.org/2000/svg">
<g clip-path="url(#clip0_2843_39980)">
<path d="M7.39519 0.00488281H7.60144C8.63503 0.0248047 9.6616 0.335059 10.5285 0.899316C11.4434 1.48936 12.1811 2.3498 12.6259 3.34326C13.0448 4.26992 13.1998 5.31025 13.0882 6.32012C12.9566 7.53594 12.4987 8.69141 11.921 9.76045C11.3816 10.7489 10.7306 11.6732 10.0184 12.5442C9.35193 13.3558 8.63386 14.1254 7.86394 14.8394C7.77195 14.9313 7.65242 14.9967 7.52058 15.0049H7.44675C7.34421 14.9844 7.24519 14.9416 7.16843 14.8689C6.73865 14.4781 6.33142 14.0636 5.93533 13.6388C4.84226 12.4578 3.84968 11.1726 3.07537 9.7584C2.56062 8.80508 2.14197 7.78672 1.96296 6.71357C1.79832 5.75205 1.8613 4.74805 2.18152 3.82432C2.59285 2.61641 3.42722 1.55879 4.50564 0.877051C5.36433 0.327148 6.37625 0.0265625 7.39519 0.00488281ZM7.30466 2.51123C6.83972 2.53936 6.38181 2.67471 5.97576 2.90264C5.31277 3.27148 4.79363 3.88936 4.54607 4.60654C4.29705 5.31963 4.3196 6.12324 4.61023 6.8208C4.89734 7.52012 5.44841 8.10605 6.1281 8.43652C6.76443 8.75176 7.51033 8.83496 8.20115 8.67441C9.00798 8.49219 9.72898 7.97012 10.1599 7.26494C10.542 6.65088 10.6961 5.90117 10.5918 5.18604C10.4845 4.4123 10.0694 3.68896 9.46121 3.2C8.86238 2.71045 8.07634 2.46025 7.30466 2.51123Z" fill="#000"/>
</g>
<defs>
<clipPath id="clip0_2843_39980">
<rect width="15" height="15" fill="white"/>
</clipPath>
</defs>
</svg>
