<?xml version="1.0" standalone="no"?>
<!DOCTYPE svg PUBLIC "-//W3C//DTD SVG 20010904//EN"
 "http://www.w3.org/TR/2001/REC-SVG-20010904/DTD/svg10.dtd">
<svg version="1.0" xmlns="http://www.w3.org/2000/svg"
 width="128.000000pt" height="128.000000pt" viewBox="0 0 128.000000 128.000000"
 preserveAspectRatio="xMidYMid meet">

<g transform="translate(0.000000,128.000000) scale(0.100000,-0.100000)"
fill="#fff" stroke="none">
<path d="M508 1085 l-217 -155 -120 0 c-113 0 -121 -1 -135 -22 -14 -19 -16
-62 -16 -270 0 -308 -11 -288 156 -288 l115 0 217 -155 c229 -164 256 -176
286 -133 14 20 16 91 16 578 0 487 -2 558 -16 578 -30 43 -57 31 -286 -133z"/>
<path d="M926 794 c-26 -26 -18 -58 25 -108 l41 -46 -41 -46 c-43 -50 -51 -82
-25 -108 27 -28 65 -19 111 26 l42 41 45 -41 c51 -47 91 -55 119 -24 27 30 20
53 -30 104 l-47 48 47 48 c50 51 58 79 29 105 -31 29 -68 21 -118 -25 l-45
-41 -42 41 c-46 45 -84 54 -111 26z"/>
</g>
</svg>
