<?xml version="1.0" standalone="no"?>
<!DOCTYPE svg PUBLIC "-//W3C//DTD SVG 20010904//EN"
 "http://www.w3.org/TR/2001/REC-SVG-20010904/DTD/svg10.dtd">
<svg version="1.0" xmlns="http://www.w3.org/2000/svg"
 width="128.000000pt" height="128.000000pt" viewBox="0 0 128.000000 128.000000"
 preserveAspectRatio="xMidYMid meet">

<g transform="translate(0.000000,128.000000) scale(0.100000,-0.100000)"
fill="#000000" stroke="none">
<path d="M275 1191 c-11 -5 -31 -21 -45 -36 l-25 -27 0 -489 0 -489 33 -32 32
-33 110 0 110 0 32 33 33 32 0 490 0 490 -33 32 c-32 32 -34 33 -130 35 -53 2
-106 -1 -117 -6z"/>
<path d="M795 1191 c-11 -5 -31 -21 -45 -36 l-25 -27 0 -489 0 -489 33 -32 32
-33 110 0 110 0 32 33 33 32 0 490 0 490 -33 32 c-32 32 -34 33 -130 35 -53 2
-106 -1 -117 -6z"/>
</g>
</svg>
