<?xml version="1.0" standalone="no"?>
<!DOCTYPE svg PUBLIC "-//W3C//DTD SVG 20010904//EN"
 "http://www.w3.org/TR/2001/REC-SVG-20010904/DTD/svg10.dtd">
<svg version="1.0" xmlns="http://www.w3.org/2000/svg"
 width="128.000000pt" height="128.000000pt" viewBox="0 0 128.000000 128.000000"
 preserveAspectRatio="xMidYMid meet">

<g transform="translate(0.000000,128.000000) scale(0.100000,-0.100000)"
fill="#000000" stroke="none">
<path d="M908 1267 c-123 -35 -208 -149 -208 -279 l0 -68 -295 0 c-326 0 -333
-1 -377 -62 l-23 -33 0 -362 c0 -350 1 -362 21 -389 11 -15 33 -37 48 -48 27
-20 39 -21 389 -21 l362 0 33 23 c61 44 62 51 62 377 l0 295 68 0 c250 0 379
293 213 483 -65 74 -195 111 -293 84z m153 -43 c118 -35 196 -164 171 -284
-24 -114 -113 -191 -228 -198 -80 -5 -137 14 -189 65 -134 130 -81 363 95 418
60 18 86 18 151 -1z m-326 -380 c21 -39 83 -99 121 -116 l24 -11 0 -209 0
-209 -32 3 c-29 3 -43 19 -155 183 -68 99 -130 181 -137 183 -9 2 -48 -46 -96
-117 -45 -67 -85 -123 -89 -125 -4 -3 -22 20 -41 50 -19 30 -42 54 -51 54 -8
0 -50 -51 -94 -115 -74 -108 -80 -115 -112 -115 l-34 0 3 261 3 261 33 29 32
29 303 0 302 0 20 -36z m-61 -401 l97 -143 -307 0 -306 0 18 28 c9 15 36 55
59 90 l42 62 42 -60 c23 -33 46 -60 51 -60 5 0 33 35 61 78 103 154 121 175
134 160 7 -7 56 -77 109 -155z m206 -256 c0 -80 -12 -107 -60 -132 -42 -22
-664 -22 -716 0 -44 18 -64 63 -64 145 l0 60 420 0 420 0 0 -73z"/>
<path d="M926 1103 c-3 -3 -6 -57 -6 -120 0 -84 3 -113 13 -113 18 0 167 103
167 116 0 6 -33 34 -72 61 -92 63 -94 64 -102 56z m82 -91 l34 -28 -41 -27
-41 -27 0 55 c0 30 3 55 8 55 4 0 22 -13 40 -28z"/>
<path d="M233 768 c-29 -32 -34 -53 -22 -88 29 -82 159 -57 159 30 0 69 -92
107 -137 58z m91 -40 c15 -24 -3 -52 -37 -56 -33 -4 -53 28 -37 59 14 25 58
23 74 -3z"/>
</g>
</svg>
