<?xml version="1.0" standalone="no"?>
<!DOCTYPE svg PUBLIC "-//W3C//DTD SVG 20010904//EN"
 "http://www.w3.org/TR/2001/REC-SVG-20010904/DTD/svg10.dtd">
<svg version="1.0" xmlns="http://www.w3.org/2000/svg"
 width="128.000000pt" height="128.000000pt" viewBox="0 0 128.000000 128.000000"
 preserveAspectRatio="xMidYMid meet">

<g transform="translate(0.000000,128.000000) scale(0.100000,-0.100000)"
fill="#fff" stroke="none">
<path d="M131 1267 c-14 -6 -34 -28 -45 -47 -21 -34 -21 -48 -21 -580 0 -532
0 -546 21 -580 25 -44 59 -62 105 -57 50 6 51 7 544 290 432 249 440 254 464
300 l24 47 -24 47 c-24 46 -32 51 -479 308 -250 144 -470 267 -489 273 -43 15
-70 15 -100 -1z"/>
</g>
</svg>
