<svg width="9" height="13" viewBox="0 0 9 13" fill="none" xmlns="http://www.w3.org/2000/svg">
<path d="M8.25 5.75H7.5V3.5C7.5 1.85 6.15 0.5 4.5 0.5C2.85 0.5 1.5 1.85 1.5 3.5V5.75H0.75C0.375 5.75 0 6.125 0 6.5V11.75C0 12.125 0.375 12.5 0.75 12.5H8.25C8.625 12.5 9 12.125 9 11.75V6.5C9 6.125 8.625 5.75 8.25 5.75ZM5.25 11H3.75L4.05 9.35C3.675 9.2 3.375 8.75 3.375 8.375C3.375 7.775 3.9 7.25 4.5 7.25C5.1 7.25 5.625 7.775 5.625 8.375C5.625 8.825 5.4 9.2 4.95 9.35L5.25 11ZM6 5.75H3V3.5C3 2.675 3.675 2 4.5 2C5.325 2 6 2.675 6 3.5V5.75Z" fill="#000"/>
</svg>
