<svg width="15" height="15" viewBox="0 0 15 15" fill="none" xmlns="http://www.w3.org/2000/svg">
<path d="M7.03125 0C3.14812 0 0 3.14812 0 7.03125L0.000234358 7.04367L0 7.05609C0 10.9256 3.13055 14.0625 6.99258 14.0625L7.00758 14.062L7.03125 14.0625C10.9144 14.0625 14.0625 10.9144 14.0625 7.03125C14.0625 3.14812 10.9144 0 7.03125 0ZM13.5938 7.03125C13.5938 7.59234 13.523 8.1368 13.3908 8.65641C13.3296 8.61422 13.1679 8.78859 13.128 8.5575C13.0781 8.27063 12.7547 8.07141 12.5805 8.20852C12.4064 8.34562 11.9088 8.7443 11.8842 8.99367C11.8591 9.24281 11.6475 9.54187 11.5484 9.33047C11.4485 9.11859 11.1504 8.45789 11.1626 8.28351C11.1748 8.10914 11.0252 8.34586 10.8021 7.99687C10.578 7.64789 10.1925 7.94672 9.88148 7.77234C9.57047 7.59773 9.22219 7.36102 9.04781 7.28648C8.87414 7.21148 9.35883 7.98422 9.42117 7.88461C9.48375 7.785 9.73219 7.95937 9.80695 7.95937C9.88172 7.95937 10.0805 8.13375 9.95625 8.29594C9.83203 8.45813 8.72508 9.13172 8.61305 8.95641C8.50055 8.78109 7.84195 7.42336 7.72969 7.50656C7.61766 7.58977 8.42648 9.00609 8.56336 9.09328C8.69977 9.1807 9.11063 9.10594 9.30938 9.01875C9.50859 8.93156 8.89898 9.99094 8.63812 10.1156C8.37703 10.2401 8.16563 10.6266 8.27719 10.8009C8.38922 10.9753 8.40164 11.636 8.16562 11.7234C7.92891 11.8104 7.84195 11.9475 7.91648 12.1097C7.99078 12.2714 7.74258 12.5454 7.63055 12.72C7.51828 12.8944 7.08328 13.2558 7.04578 13.3556C7.00875 13.4555 6.47391 13.4304 6.26203 13.4304C6.05086 13.4304 6.21234 13.1686 6.18727 12.9445C6.16289 12.72 5.97633 12.5081 5.97633 12.3961C5.97633 12.2838 5.91375 12.022 5.82703 11.8976C5.74008 11.7727 5.71477 11.5359 5.80195 11.3991C5.88937 11.2617 5.95125 10.8633 5.77758 10.6887C5.6032 10.5143 5.40398 10.215 5.54109 9.97828C5.67797 9.74156 5.3918 9.76664 5.15555 9.65414C4.91906 9.54188 4.43391 9.69164 4.18523 9.72914C3.93633 9.76641 3.68789 9.6668 3.61313 9.54188C3.53859 9.41742 3.37688 9.10594 3.21117 9.03094C3.04594 8.95641 3.14062 8.63227 3.24 8.50781C3.33984 8.38336 3.14062 8.14641 3.24 8.04633C3.33984 7.94672 3.40172 7.58555 3.6007 7.50656C3.79992 7.42781 3.76242 7.37367 3.76852 7.18664C3.77484 6.99961 3.99234 6.99961 4.02938 6.9C4.06687 6.80016 4.17867 6.75047 4.4032 6.75047C4.62703 6.75047 5.00602 6.61945 5.18648 6.57586C5.36695 6.53227 5.67797 6.46992 5.65289 6.64453C5.62805 6.81891 5.63437 7.01813 5.75227 7.01813C5.87063 7.01813 6.03234 7.0868 6.21891 7.20305C6.40547 7.31906 6.41156 7.22414 6.43664 7.09312C6.46172 6.96211 6.72258 7.01203 6.99258 7.13672C7.26258 7.26141 7.63078 7.17398 7.74844 7.1618C7.8668 7.14891 7.91672 6.79406 7.88555 6.6757C7.85414 6.55734 7.66781 6.73172 7.54969 6.65695C7.43156 6.58242 7.26961 6.6757 7.15172 6.56953C7.03336 6.46383 7.01461 6.21445 7.15172 6.20836C7.28836 6.20203 7.35703 6.15844 7.43766 6.06516C7.51875 5.97164 7.82344 5.91563 7.94156 6.00891C8.05945 6.10242 8.23406 6.16477 8.3393 6.05883C8.445 5.95312 8.12836 5.74758 8.05945 5.69133C7.99102 5.63531 8.04703 5.45461 7.97883 5.45461C7.91016 5.45461 7.85414 5.48555 7.89164 5.57297C7.92891 5.66016 7.69266 5.81578 7.65492 5.72883C7.61789 5.64141 7.55578 5.47336 7.4625 5.47336C7.36945 5.47336 7.245 5.89711 7.23867 5.96555C7.23234 6.03422 7.07062 6.14625 6.94031 6.14625C6.81 6.14625 6.81 6.29602 6.8782 6.36469C6.94664 6.43313 6.89672 6.70734 6.7725 6.72305C6.64805 6.73898 6.60445 6.69492 6.58594 6.58875C6.56742 6.48305 6.44297 6.49547 6.43664 6.27727C6.43031 6.05906 6.29344 5.95336 6.20648 5.85352C6.11953 5.75367 5.89547 5.46094 5.80852 5.59195C5.72156 5.72297 6.11953 6.00328 6.225 6.07781C6.33117 6.15258 6.31242 6.31453 6.25641 6.35203C6.20039 6.38953 6.09469 6.69492 6.03258 6.71953C5.97 6.74438 5.9107 6.62672 5.9107 6.62672C5.81742 6.58945 6.04102 6.47719 6.07852 6.42117C6.11555 6.36516 5.68687 5.97258 5.60953 5.86031C5.53219 5.74805 5.20172 5.95359 5.05266 5.87906C4.90336 5.80453 4.6793 6.15937 4.66102 6.36492C4.64203 6.5707 4.39945 6.62648 4.17562 6.62648C3.95203 6.62648 3.8025 6.45844 3.8775 6.29016C3.95203 6.12187 3.84 5.84156 3.97078 5.82281C4.10133 5.8043 4.47398 5.82281 4.54875 5.61727C4.62328 5.41172 4.19414 5.22469 4.36242 5.18742C4.53 5.14992 4.79156 4.88859 4.97813 4.73883C5.16422 4.5893 5.18297 4.4025 5.35078 4.38938C5.51906 4.37648 5.31375 4.0657 5.46305 3.97242C5.61258 3.87891 5.64961 4.30898 5.76164 4.30898C5.87367 4.30898 6.09703 4.27148 6.28383 4.365C6.47063 4.45852 6.52641 4.27148 6.60117 4.0282C6.6757 3.78539 6.86227 3.65438 7.23516 3.46758C7.60828 3.28055 6.80648 3.52359 6.65695 3.33656C6.50766 3.14953 6.71297 2.7382 6.80648 2.44781C6.89977 2.15719 6.50789 2.7382 6.30258 3.0375C6.09703 3.33656 6.35859 3.46734 6.33961 3.67289C6.32109 3.87867 5.9857 4.12148 5.9857 4.12148C5.83641 4.14023 5.85492 3.84117 5.78039 3.71039C5.70563 3.57961 5.57484 3.63562 5.36953 3.78516C5.16422 3.93469 5.1457 3.43008 5.08992 3.2243C5.03437 3.01898 5.42578 2.75695 5.60977 2.61727C5.79352 2.47711 6.09703 1.80375 6.43313 1.28063C6.76922 0.757266 7.25414 1.01883 7.38469 1.22461C7.5157 1.42992 7.85086 1.29914 8.16844 1.6732C8.48578 2.04703 8.09367 2.21508 7.73977 2.0632C7.38469 1.91133 7.81406 2.43961 8.01891 2.58914C8.22422 2.73844 8.33625 2.25258 8.41102 2.14055C8.48555 2.02828 8.76516 2.08453 8.97023 1.78523C9.17578 1.48617 9.64195 1.54242 9.9082 1.57523C10.1747 1.60828 10.1084 1.41141 9.94055 1.25039C9.81633 1.13133 10.0704 1.23563 10.3695 1.38164C12.2991 2.52375 13.5938 4.62586 13.5938 7.03125ZM4.22859 4.79813C4.16672 4.73414 4.29117 4.48219 4.34695 4.40742C4.4032 4.33266 4.19133 4.3575 4.20422 4.46367C4.21664 4.56938 4.12313 4.73156 3.99258 4.77516C3.86203 4.81875 3.7132 4.80609 3.7875 4.68773C3.8618 4.56938 3.79359 4.46344 3.73758 4.35117C3.6818 4.23891 4.04836 4.17047 4.12336 4.10203C4.19789 4.03359 4.00547 3.98977 4.01133 3.88406C4.01766 3.77789 4.06125 3.68461 4.13531 3.67219C4.21008 3.65977 4.27992 3.61195 4.34695 3.61617C4.5525 3.62883 4.48969 4.09594 4.56469 4.2457C4.63922 4.395 4.85086 4.57594 4.83211 4.70648C4.81336 4.8375 4.77352 4.91227 4.62117 4.87477C4.46812 4.83727 4.2232 5.06789 4.12945 5.0243C4.03594 4.98047 4.29117 4.86211 4.22859 4.79813ZM2.88844 2.17758C3.07523 2.27086 3.22406 2.10164 3.35438 2.06531C3.50883 2.02266 3.59695 2.57016 3.44789 2.55141C3.29859 2.53266 3.13078 2.85047 2.91516 2.83172C2.6993 2.81297 2.79492 2.66367 2.55234 2.43937C2.50031 2.39109 2.47898 2.3475 2.47711 2.3093C2.52891 2.25937 2.58047 2.20922 2.63414 2.16117C2.71805 2.13891 2.81766 2.14219 2.88844 2.17758ZM8.72484 11.5856C8.89898 11.5484 8.86547 11.217 9.02344 11.1994C9.3593 11.1621 9.03586 12.0966 8.91164 12.3584C8.78719 12.6202 8.73703 12.6075 8.61867 12.4455C8.49984 12.2838 8.53828 12.0218 8.61867 11.8973C8.69883 11.7724 8.55047 11.6231 8.72484 11.5856Z" fill="#000"/>
</svg>
