<?xml version="1.0" standalone="no"?>
<!DOCTYPE svg PUBLIC "-//W3C//DTD SVG 20010904//EN"
 "http://www.w3.org/TR/2001/REC-SVG-20010904/DTD/svg10.dtd">
<svg version="1.0" xmlns="http://www.w3.org/2000/svg"
 width="128.000000pt" height="128.000000pt" viewBox="0 0 128.000000 128.000000"
 preserveAspectRatio="xMidYMid meet">

<g transform="translate(0.000000,128.000000) scale(0.100000,-0.100000)"
fill="#000000" stroke="none">
<path d="M760 1043 c0 -54 -4 -103 -8 -109 -4 -7 -34 -15 -67 -19 -196 -23
-346 -101 -469 -245 -96 -111 -161 -298 -154 -440 l3 -64 39 64 c120 194 338
321 556 324 l95 1 3 -103 c1 -56 5 -102 8 -102 13 0 434 384 431 394 -2 6
-101 98 -220 204 l-217 193 0 -98z"/>
</g>
</svg>
