<svg width="9" height="13" viewBox="0 0 9 13" fill="none" xmlns="http://www.w3.org/2000/svg">
<path d="M7 0.25H2C1.50272 0.25 1.02581 0.447544 0.67418 0.799175C0.322549 1.15081 0.125005 1.62772 0.125005 2.125V12.125C0.124568 12.2351 0.153239 12.3434 0.208116 12.4389C0.262993 12.5344 0.342127 12.6137 0.437505 12.6688C0.532517 12.7236 0.640294 12.7525 0.750005 12.7525C0.859715 12.7525 0.967493 12.7236 1.0625 12.6688L4.5 10.6813L7.9375 12.6688C8.03276 12.7227 8.14052 12.7508 8.25 12.75C8.35949 12.7508 8.46725 12.7227 8.5625 12.6688C8.65788 12.6137 8.73702 12.5344 8.79189 12.4389C8.84677 12.3434 8.87544 12.2351 8.875 12.125V2.125C8.875 1.62772 8.67746 1.15081 8.32583 0.799175C7.9742 0.447544 7.49728 0.25 7 0.25ZM7.625 11.0438L4.8125 9.41875C4.71749 9.36389 4.60971 9.33502 4.5 9.33502C4.39029 9.33502 4.28252 9.36389 4.1875 9.41875L1.375 11.0438V2.125C1.375 1.95924 1.44085 1.80027 1.55806 1.68306C1.67527 1.56585 1.83424 1.5 2 1.5H7C7.16576 1.5 7.32474 1.56585 7.44195 1.68306C7.55916 1.80027 7.625 1.95924 7.625 2.125V11.0438Z" fill="#000"/>
</svg>
