<svg width="20" height="20" viewBox="0 0 20 20" fill="none" xmlns="http://www.w3.org/2000/svg">
<path fill-rule="evenodd" clip-rule="evenodd" d="M15.2642 12.0274C16.3034 10.6877 16.7931 9.00245 16.6338 7.31448C16.4745 5.6265 15.6781 4.06261 14.4067 2.94097C13.1352 1.81933 11.4842 1.22419 9.78958 1.27663C8.09491 1.32907 6.48388 2.02515 5.28422 3.22326C4.08352 4.4222 3.38516 6.03386 3.33147 7.72981C3.27777 9.42577 3.87278 11.0784 4.99524 12.3509C6.1177 13.6234 7.68313 14.42 9.37253 14.5783C11.0619 14.7367 12.7481 14.2449 14.0876 13.2033L14.1234 13.2408L17.6584 16.7766C17.7358 16.854 17.8277 16.9154 17.9289 16.9573C18.03 16.9992 18.1385 17.0208 18.248 17.0208C18.3575 17.0208 18.4659 16.9992 18.567 16.9573C18.6682 16.9154 18.7601 16.854 18.8376 16.7766C18.915 16.6992 18.9764 16.6072 19.0183 16.5061C19.0602 16.4049 19.0818 16.2965 19.0818 16.187C19.0818 16.0775 19.0602 15.9691 19.0183 15.8679C18.9764 15.7668 18.915 15.6748 18.8376 15.5974L15.3017 12.0624C15.2895 12.0504 15.277 12.0387 15.2642 12.0274ZM13.5342 4.40242C14.0047 4.86532 14.3789 5.4168 14.6352 6.02504C14.8915 6.63328 15.0249 7.28624 15.0276 7.94627C15.0302 8.60631 14.9022 9.26034 14.6509 9.87064C14.3995 10.4809 14.0298 11.0355 13.5631 11.5022C13.0964 11.9689 12.5419 12.3386 11.9316 12.5899C11.3213 12.8413 10.6673 12.9693 10.0072 12.9666C9.3472 12.9639 8.69424 12.8306 8.086 12.5743C7.47776 12.318 6.92628 11.9438 6.46339 11.4733C5.53832 10.533 5.02226 9.26529 5.02764 7.94627C5.03301 6.62726 5.55937 5.36379 6.49206 4.4311C7.42475 3.4984 8.68822 2.97205 10.0072 2.96667C11.3263 2.9613 12.594 3.47736 13.5342 4.40242Z" fill="#000"/>
</svg>
