<svg width="20" height="20" viewBox="0 0 20 20" fill="none" xmlns="http://www.w3.org/2000/svg">
<path d="M7.61964 17.9879C6.24133 17.5764 4.99305 16.815 3.9963 15.7779C4.317 15.3976 4.51692 14.9302 4.57047 14.4355C4.62402 13.9409 4.52877 13.4415 4.2969 13.0014C4.06504 12.5612 3.70712 12.2002 3.26892 11.9646C2.83073 11.7289 2.3322 11.6294 1.83714 11.6788C1.72435 11.1263 1.66768 10.5639 1.66797 10C1.66797 9.12918 1.8013 8.28918 2.04964 7.50001H2.08464C2.50954 7.50015 2.92746 7.39198 3.29894 7.18574C3.67043 6.97949 3.98322 6.68197 4.20777 6.32126C4.43233 5.96054 4.56125 5.54855 4.58235 5.12418C4.60346 4.6998 4.51605 4.27705 4.32839 3.89584C5.3053 2.98619 6.48674 2.32494 7.77297 1.96793C7.98229 2.37893 8.30124 2.72401 8.69452 2.96499C9.08779 3.20597 9.54007 3.33346 10.0013 3.33334C10.4625 3.33346 10.9148 3.20597 11.3081 2.96499C11.7014 2.72401 12.0203 2.37893 12.2296 1.96793C13.5159 2.32494 14.6973 2.98619 15.6742 3.89584C15.4852 4.27972 15.3979 4.7057 15.4206 5.13299C15.4433 5.56029 15.5753 5.9746 15.804 6.33627C16.0326 6.69794 16.3503 6.99487 16.7266 7.19863C17.1028 7.40239 17.5251 7.50616 17.953 7.50001C18.2067 8.30906 18.3354 9.15211 18.3346 10C18.3346 10.575 18.2763 11.1367 18.1655 11.6788C17.6704 11.6294 17.1719 11.7289 16.7337 11.9646C16.2955 12.2002 15.9376 12.5612 15.7057 13.0014C15.4738 13.4415 15.3786 13.9409 15.4321 14.4355C15.4857 14.9302 15.6856 15.3976 16.0063 15.7779C15.0096 16.815 13.7613 17.5764 12.383 17.9879C12.2211 17.4835 11.9033 17.0434 11.4752 16.7312C11.0472 16.419 10.5311 16.2508 10.0013 16.2508C9.47151 16.2508 8.95541 16.419 8.52737 16.7312C8.09934 17.0434 7.78149 17.4835 7.61964 17.9879Z" stroke="#000" stroke-width="1.66667" stroke-linejoin="round"/>
<path d="M10.0026 12.9167C10.3856 12.9167 10.7649 12.8412 11.1188 12.6947C11.4726 12.5481 11.7942 12.3332 12.065 12.0624C12.3358 11.7916 12.5507 11.47 12.6973 11.1162C12.8438 10.7623 12.9193 10.383 12.9193 10C12.9193 9.61699 12.8438 9.23772 12.6973 8.88385C12.5507 8.52998 12.3358 8.20845 12.065 7.93762C11.7942 7.66678 11.4726 7.45194 11.1188 7.30536C10.7649 7.15879 10.3856 7.08334 10.0026 7.08334C9.22906 7.08334 8.48719 7.39063 7.94021 7.93762C7.39323 8.4846 7.08594 9.22646 7.08594 10C7.08594 10.7736 7.39323 11.5154 7.94021 12.0624C8.48719 12.6094 9.22906 12.9167 10.0026 12.9167V12.9167Z" stroke="#000" stroke-width="1.66667" stroke-linejoin="round"/>
</svg>
