<?xml version="1.0" standalone="no"?>
<!DOCTYPE svg PUBLIC "-//W3C//DTD SVG 20010904//EN"
 "http://www.w3.org/TR/2001/REC-SVG-20010904/DTD/svg10.dtd">
<svg version="1.0" xmlns="http://www.w3.org/2000/svg"
 width="128.000000pt" height="128.000000pt" viewBox="0 0 128.000000 128.000000"
 preserveAspectRatio="xMidYMid meet">

<g transform="translate(0.000000,128.000000) scale(0.100000,-0.100000)"
fill="#000000" stroke="none">
<path d="M259 1181 c-188 -60 -296 -257 -245 -446 31 -119 127 -258 270 -393
81 -77 259 -213 321 -246 35 -19 38 -19 69 -2 59 32 243 174 322 248 279 264
352 502 215 702 -62 90 -189 156 -301 156 -67 0 -160 -31 -220 -74 l-50 -36
-50 36 c-97 70 -221 90 -331 55z m199 -76 c36 -11 69 -32 111 -70 32 -30 65
-55 72 -55 8 0 34 21 59 47 63 65 117 88 210 88 89 0 146 -23 202 -80 171
-173 84 -425 -236 -692 -51 -43 -125 -100 -165 -127 l-71 -49 -71 49 c-243
167 -423 364 -469 513 -39 125 -19 214 69 302 84 84 176 107 289 74z"/>
</g>
</svg>
