<svg width="129" height="170" viewBox="0 0 129 170" fill="none" xmlns="http://www.w3.org/2000/svg">
<path d="M25.4922 67.6774C25.5112 66.1497 25.5035 64.6353 25.4959 63.1258C25.4846 60.8741 25.4733 58.6335 25.5505 56.3765H25.5505L25.5507 56.3692C25.598 53.9616 26.8913 51.7461 28.629 50.0274L28.777 49.8809L28.7773 49.6726C28.7829 45.994 28.7815 42.3197 28.78 38.6464C28.7785 34.5206 28.7769 30.396 28.7851 26.2679C29.0597 22.342 30.161 18.4546 32.1319 15.0514L32.1341 15.0476C34.864 10.2368 39.3842 6.59666 44.4693 4.42488C50.425 1.8985 56.9606 0.875103 63.4327 0.886736L63.4352 0.886728C63.5651 0.886313 63.6949 0.88587 63.8247 0.885427C67.3667 0.873345 70.8767 0.861371 74.3315 1.41175L74.3315 1.41185L74.3415 1.41324C81.3008 2.37863 88.3143 4.70185 93.4669 9.52521L93.4711 9.52907C98.2276 13.8809 100.928 20.2502 101.223 26.6714C101.215 34.3358 101.215 42.0002 101.223 49.6646L101.223 49.8689L101.366 50.0146C102.902 51.5774 104.144 53.4654 104.374 55.5906C104.543 57.2735 104.526 58.94 104.509 60.6376C104.499 61.5303 104.49 62.4318 104.508 63.3487C104.492 64.358 104.501 65.3531 104.509 66.3414C104.524 68.0686 104.539 69.775 104.423 71.4995C104.147 75.1735 101.275 78.3226 97.7829 79.4581L97.5419 79.5365L97.4626 79.7771C94.6674 88.26 90.5254 96.3508 84.826 103.23C84.5216 103.565 84.4463 103.962 84.4254 104.283C84.4149 104.443 84.4172 104.606 84.418 104.74C84.419 104.882 84.4185 104.997 84.4085 105.101L84.4061 105.126L84.4063 105.152C84.4336 108.797 84.4219 112.442 84.4102 116.095C84.3702 120.272 86.4253 124.429 89.8648 126.847L89.8648 126.847L89.8722 126.852C90.8304 127.5 91.8447 128.034 92.8562 128.534C93.1901 128.699 93.5215 128.859 93.8507 129.018C94.5291 129.346 95.1979 129.669 95.8594 130.02L95.8593 130.02L95.8703 130.025C100.19 132.183 104.508 134.343 108.827 136.503L108.888 136.533C113.227 138.703 117.565 140.873 121.905 143.041L121.905 143.041L121.916 143.046C124.129 144.087 126.235 145.341 128.136 146.862C116.494 156.478 102.617 163.378 87.9131 166.83L87.9114 166.83C80.6437 168.562 73.174 169.395 65.6955 169.5H64.3347C41.5688 169.381 18.9279 161.172 1.49625 146.519C2.85772 145.385 4.30613 144.366 5.85552 143.526L5.85652 143.525C10.4171 141.039 14.9768 138.551 19.5363 136.064C24.0959 133.577 28.6554 131.089 33.2159 128.603L32.9766 128.164L33.2159 128.603C33.3778 128.515 33.5411 128.426 33.7054 128.338C35.3544 127.445 37.1023 126.499 38.4956 125.094L38.4996 125.09C40.8033 122.714 42.2496 119.42 42.121 116.05C42.1064 114.644 42.1215 113.222 42.1366 111.794C42.1653 109.09 42.1942 106.363 42.0224 103.671L42.0129 103.523L41.9235 103.403C36.466 96.1214 32.2726 87.8348 30.1384 78.9844L30.1137 78.882L30.0499 78.7983C29.6327 78.2514 29.1097 77.7821 28.6266 77.3487C28.5306 77.2625 28.436 77.1777 28.3443 77.094C27.7717 76.5718 27.2776 76.0707 26.9562 75.4468L26.9402 75.4157L26.92 75.3872C25.4394 73.2925 25.4643 70.65 25.4894 67.9796C25.4903 67.8789 25.4913 67.7781 25.4922 67.6774ZM25.4922 67.6774C25.4922 67.6776 25.4922 67.6779 25.4922 67.6781L24.9922 67.6719L25.4922 67.6762C25.4922 67.6766 25.4922 67.677 25.4922 67.6774Z" fill="url(#paint0_linear_1743_43778)" stroke="white"/>
<defs>
<linearGradient id="paint0_linear_1743_43778" x1="0.722656" y1="0.381836" x2="170.737" y2="76.0635" gradientUnits="userSpaceOnUse">
<stop stop-color="#5B2E92"/>
<stop offset="0.504944" stop-color="#29409C"/>
<stop offset="1" stop-color="#0F91D2"/>
</linearGradient>
</defs>
</svg>
