<?xml version="1.0" standalone="no"?>
<!DOCTYPE svg PUBLIC "-//W3C//DTD SVG 20010904//EN"
 "http://www.w3.org/TR/2001/REC-SVG-20010904/DTD/svg10.dtd">
<svg version="1.0" xmlns="http://www.w3.org/2000/svg"
 width="128.000000pt" height="128.000000pt" viewBox="0 0 128.000000 128.000000"
 preserveAspectRatio="xMidYMid meet">

<g transform="translate(0.000000,128.000000) scale(0.100000,-0.100000)"
fill="#000000" stroke="none">
<path d="M504 1071 l-210 -169 -123 -3 c-120 -4 -123 -5 -147 -32 -24 -28 -24
-31 -24 -227 0 -196 0 -199 24 -227 24 -27 27 -28 147 -32 l123 -3 205 -165
c112 -91 211 -167 218 -170 8 -3 23 3 33 12 19 18 20 34 20 585 0 537 -1 568
-18 583 -10 10 -23 17 -28 17 -6 0 -105 -76 -220 -169z"/>
<path d="M1042 1058 c-18 -18 -15 -34 17 -70 89 -103 131 -213 131 -348 0
-136 -39 -235 -142 -363 -27 -33 -16 -60 24 -65 54 -7 164 166 193 303 28 135
12 267 -50 390 -63 127 -135 191 -173 153z"/>
<path d="M922 938 c-19 -19 -14 -37 23 -81 100 -117 100 -317 0 -434 -38 -45
-43 -64 -21 -83 27 -21 59 -6 98 45 61 81 82 144 82 255 0 111 -21 174 -82
255 -39 52 -75 68 -100 43z"/>
</g>
</svg>
