<svg width="15" height="15" viewBox="0 0 15 15" fill="none" xmlns="http://www.w3.org/2000/svg">
<g clip-path="url(#clip0_2843_40008)">
<path d="M2.88112 0C2.88112 0 1.74516 1.25135 1.74516 1.875C1.7454 2.15322 1.84873 2.42148 2.03519 2.62797C2.22166 2.83447 2.47802 2.96454 2.75477 2.99308C2.62224 2.96547 2.50328 2.89302 2.41795 2.78792C2.33261 2.68283 2.28612 2.55153 2.28631 2.41615C2.28631 2.09135 2.88112 1.44231 2.88112 1.44231C2.88112 1.44231 3.47593 2.09077 3.47593 2.41615C3.47593 2.70058 3.27516 2.93827 3.00746 2.99308C3.28422 2.96454 3.54058 2.83447 3.72704 2.62797C3.9135 2.42148 4.01684 2.15322 4.01708 1.875C4.01708 1.25192 2.88112 0 2.88112 0ZM7.4965 0C7.4965 0 6.36054 1.25135 6.36054 1.875C6.36079 2.15322 6.46412 2.42148 6.65058 2.62797C6.83704 2.83447 7.0934 2.96454 7.37016 2.99308C7.23763 2.96547 7.11867 2.89302 7.03333 2.78792C6.948 2.68283 6.90151 2.55153 6.9017 2.41615C6.9017 2.09135 7.4965 1.44231 7.4965 1.44231C7.4965 1.44231 8.09131 2.09077 8.09131 2.41615C8.09131 2.70058 7.89054 2.93827 7.62285 2.99308C7.8996 2.96454 8.15597 2.83447 8.34243 2.62797C8.52889 2.42148 8.63222 2.15322 8.63247 1.875C8.63247 1.25192 7.4965 0 7.4965 0ZM12.1119 0C12.1119 0 10.9759 1.25135 10.9759 1.875C10.9762 2.15322 11.0795 2.42148 11.266 2.62797C11.4524 2.83447 11.7088 2.96454 11.9855 2.99308C11.853 2.96547 11.7341 2.89302 11.6487 2.78792C11.5634 2.68283 11.5169 2.55153 11.5171 2.41615C11.5171 2.09135 12.1119 1.44231 12.1119 1.44231C12.1119 1.44231 12.7067 2.09077 12.7067 2.41615C12.7067 2.70058 12.5059 2.93827 12.2382 2.99308C12.515 2.96454 12.7714 2.83447 12.9578 2.62797C13.1443 2.42148 13.2476 2.15322 13.2479 1.875C13.2479 1.25192 12.1119 0 12.1119 0ZM1.74516 3.28154C1.69821 3.27315 1.64999 3.2753 1.60398 3.28782C1.55796 3.30035 1.51531 3.32294 1.47909 3.35397C1.44288 3.38499 1.41401 3.42368 1.39457 3.46723C1.37513 3.51077 1.36561 3.55809 1.3667 3.60577C1.3667 3.81346 1.74516 4.18904 1.74516 4.84962V8.05904H4.01766V4.79596C4.01766 4.39269 4.39612 4.24673 4.39612 4.03846C4.39612 3.83077 4.38746 3.60577 3.74708 3.60577C2.79458 3.60577 1.74573 3.28096 1.74573 3.28096L1.74516 3.28154ZM6.36054 3.28154C6.3136 3.27315 6.26538 3.2753 6.21936 3.28782C6.17335 3.30035 6.13069 3.32294 6.09448 3.35397C6.05826 3.38499 6.02939 3.42368 6.00995 3.46723C5.99052 3.51077 5.981 3.55809 5.98208 3.60577C5.98208 3.81346 6.36054 4.18904 6.36054 4.84962V8.05904H8.63247V4.79596C8.63247 4.39269 9.01093 4.24673 9.01093 4.03846C9.01093 3.83077 9.00227 3.60577 8.36189 3.60577C7.40939 3.60577 6.36054 3.28096 6.36054 3.28096V3.28154ZM10.9759 3.28154C10.929 3.27315 10.8808 3.2753 10.8347 3.28782C10.7887 3.30035 10.7461 3.32294 10.7099 3.35397C10.6736 3.38499 10.6448 3.42368 10.6253 3.46723C10.6059 3.51077 10.5964 3.55809 10.5975 3.60577C10.5975 3.81346 10.9759 4.18904 10.9759 4.84962V8.05904H13.2479V4.79596C13.2479 4.39269 13.6263 4.24673 13.6263 4.03846C13.6263 3.83077 13.6177 3.60577 12.9773 3.60577C12.0248 3.60577 10.9759 3.28096 10.9759 3.28096V3.28154ZM2.3042 8.65385C1.34881 8.65385 0.573426 9.42923 0.573426 10.3846V13.8462C0.555359 13.8453 0.537262 13.8453 0.519195 13.8462C0.443433 13.8497 0.369113 13.8682 0.30048 13.9004C0.231847 13.9327 0.170245 13.9782 0.119191 14.0343C0.0160819 14.1476 -0.0378039 14.2972 -0.0306125 14.4502C-0.0234211 14.6032 0.0442587 14.7471 0.157538 14.8502C0.270817 14.9533 0.420416 15.0072 0.573426 15H14.4196C14.5726 15 14.7193 14.9392 14.8275 14.831C14.9357 14.7228 14.9965 14.5761 14.9965 14.4231C14.9965 14.2701 14.9357 14.1233 14.8275 14.0151C14.7193 13.9069 14.5726 13.8462 14.4196 13.8462V10.3846C14.4196 9.42923 13.6442 8.65385 12.6888 8.65385H2.3042ZM2.88112 10.9615C2.88112 11.2676 3.00268 11.561 3.21907 11.7774C3.43546 11.9938 3.72895 12.1154 4.03496 12.1154C4.34098 12.1154 4.63447 11.9938 4.85086 11.7774C5.06725 11.561 5.18881 11.2676 5.18881 10.9615C5.18881 11.2676 5.31038 11.561 5.52677 11.7774C5.74315 11.9938 6.03664 12.1154 6.34266 12.1154C6.64868 12.1154 6.94216 11.9938 7.15855 11.7774C7.37494 11.561 7.4965 11.2676 7.4965 10.9615C7.4965 11.2676 7.61807 11.561 7.83446 11.7774C8.05085 11.9938 8.34433 12.1154 8.65035 12.1154C8.95637 12.1154 9.24985 11.9938 9.46624 11.7774C9.68263 11.561 9.8042 11.2676 9.8042 10.9615C9.8042 11.2676 9.92576 11.561 10.1421 11.7774C10.3585 11.9938 10.652 12.1154 10.958 12.1154C11.2641 12.1154 11.5575 11.9938 11.7739 11.7774C11.9903 11.561 12.1119 11.2676 12.1119 10.9615C12.1119 11.2676 12.2335 11.561 12.4498 11.7774C12.6662 11.9938 12.9597 12.1154 13.2657 12.1154V13.8462H1.72727V12.1154C2.03329 12.1154 2.32678 11.9938 2.54316 11.7774C2.75955 11.561 2.88112 11.2676 2.88112 10.9615Z" fill="#000"/>
</g>
<defs>
<clipPath id="clip0_2843_40008">
<rect width="15" height="15" fill="white"/>
</clipPath>
</defs>
</svg>
